<svg width="29" height="22" viewBox="0 0 29 22" fill="none" xmlns="http://www.w3.org/2000/svg">
  <path d="M24.1933 2.10665C22.42 1.27998 20.5 0.67998 18.5 0.333313C18.4825 0.332752 18.465 0.336043 18.4489 0.342954C18.4328 0.349865 18.4183 0.360229 18.4067 0.373314C18.1667 0.813314 17.8867 1.38665 17.7 1.82665C15.5787 1.50665 13.4213 1.50665 11.3 1.82665C11.1133 1.37331 10.8333 0.813314 10.58 0.373314C10.5667 0.346647 10.5267 0.333313 10.4867 0.333313C8.48666 0.67998 6.57999 1.27998 4.79333 2.10665C4.77999 2.10665 4.76666 2.11998 4.75333 2.13331C1.12666 7.55998 0.12666 12.84 0.619994 18.0666C0.619994 18.0933 0.633327 18.12 0.659993 18.1333C3.05999 19.8933 5.36666 20.96 7.64666 21.6666C7.68666 21.68 7.72666 21.6666 7.73999 21.64C8.27333 20.9066 8.75333 20.1333 9.16666 19.32C9.19333 19.2666 9.16666 19.2133 9.11333 19.2C8.35333 18.9066 7.63333 18.56 6.92666 18.16C6.87333 18.1333 6.87333 18.0533 6.91333 18.0133C7.05999 17.9066 7.20666 17.7866 7.35333 17.68C7.37999 17.6533 7.41999 17.6533 7.44666 17.6666C12.0333 19.76 16.98 19.76 21.5133 17.6666C21.54 17.6533 21.58 17.6533 21.6067 17.68C21.7533 17.8 21.9 17.9066 22.0467 18.0266C22.1 18.0666 22.1 18.1466 22.0333 18.1733C21.34 18.5866 20.6067 18.92 19.8467 19.2133C19.7933 19.2266 19.78 19.2933 19.7933 19.3333C20.22 20.1466 20.7 20.92 21.22 21.6533C21.26 21.6666 21.3 21.68 21.34 21.6666C23.6333 20.96 25.94 19.8933 28.34 18.1333C28.3667 18.12 28.38 18.0933 28.38 18.0666C28.9667 12.0266 27.4067 6.78665 24.2467 2.13331C24.2333 2.11998 24.22 2.10665 24.1933 2.10665ZM9.85999 14.88C8.48666 14.88 7.33999 13.6133 7.33999 12.0533C7.33999 10.4933 8.45999 9.22665 9.85999 9.22665C11.2733 9.22665 12.3933 10.5066 12.38 12.0533C12.38 13.6133 11.26 14.88 9.85999 14.88ZM19.1533 14.88C17.78 14.88 16.6333 13.6133 16.6333 12.0533C16.6333 10.4933 17.7533 9.22665 19.1533 9.22665C20.5667 9.22665 21.6867 10.5066 21.6733 12.0533C21.6733 13.6133 20.5667 14.88 19.1533 14.88Z" fill="#F7F2EC"/>
</svg>
