<svg width="29" height="28" viewBox="0 0 29 28" fill="none" xmlns="http://www.w3.org/2000/svg">
  <path d="M13.9375 0.5L9.27503 10.6L13.9375 12.1562V0.5ZM15.0625 0.5V12.1562L19.725 10.6L15.0625 0.5ZM9.64378 7.1125L1.14253 8.175L8.14378 10.3625L9.64378 7.1125ZM19.3563 7.1125L20.8563 10.3625L27.8625 8.175L19.3563 7.1125ZM0.0925293 9.025L6.62503 17.1938L13.1625 13.1062L0.0925293 9.025ZM28.9063 9.025L15.8375 13.1062L22.375 17.1938L28.9063 9.025ZM14.5 13.6L8.46253 17.375H20.5375L14.5 13.6ZM6.50003 20.375C5.50003 20.375 4.49128 20.9375 3.64503 21.4562C2.7994 21.9812 2.1494 22.5 2.1494 22.5L2.85065 23.375C2.85065 23.375 3.45378 22.8938 4.2344 22.4188C5.01253 21.9375 6.00628 21.5 6.50003 21.5C6.99378 21.5 7.52503 21.875 8.15003 22.375C8.77503 22.875 9.50003 23.5 10.5 23.5C11.5 23.5 12.225 22.875 12.85 22.375C13.475 21.875 14.0063 21.5 14.5 21.5C14.9938 21.5 15.525 21.875 16.15 22.375C16.775 22.875 17.5 23.5 18.5 23.5C19.5 23.5 20.225 22.875 20.85 22.375C21.475 21.875 22.0063 21.5 22.5 21.5C22.9938 21.5 23.9875 21.9375 24.7625 22.4188C25.5438 22.8938 26.15 23.375 26.15 23.375L26.85 22.5C26.85 22.5 26.2 21.9812 25.3563 21.4562C24.5063 20.9375 23.5 20.375 22.5 20.375C21.5 20.375 20.775 21 20.15 21.5C19.525 22 18.9938 22.375 18.5 22.375C18.0063 22.375 17.475 22 16.85 21.5C16.225 21 15.5 20.375 14.5 20.375C13.5 20.375 12.775 21 12.15 21.5C11.525 22 10.9938 22.375 10.5 22.375C10.0063 22.375 9.47503 22 8.85003 21.5C8.22503 21 7.50003 20.375 6.50003 20.375ZM6.50003 24.375C5.50003 24.375 4.49128 24.9375 3.64503 25.4562C2.7994 25.9812 2.1494 26.5 2.1494 26.5L2.85065 27.375C2.85065 27.375 3.45378 26.8938 4.2344 26.4188C5.01253 25.9375 6.00628 25.5 6.50003 25.5C6.99378 25.5 7.52503 25.875 8.15003 26.375C8.77503 26.875 9.50003 27.5 10.5 27.5C11.5 27.5 12.225 26.875 12.85 26.375C13.475 25.875 14.0063 25.5 14.5 25.5C14.9938 25.5 15.525 25.875 16.15 26.375C16.775 26.875 17.5 27.5 18.5 27.5C19.5 27.5 20.225 26.875 20.85 26.375C21.475 25.875 22.0063 25.5 22.5 25.5C22.9938 25.5 23.9875 25.9375 24.7625 26.4188C25.5438 26.8938 26.15 27.375 26.15 27.375L26.85 26.5C26.85 26.5 26.2 25.9812 25.3563 25.4562C24.5063 24.9375 23.5 24.375 22.5 24.375C21.5 24.375 20.775 25 20.15 25.5C19.525 26 18.9938 26.375 18.5 26.375C18.0063 26.375 17.475 26 16.85 25.5C16.225 25 15.5 24.375 14.5 24.375C13.5 24.375 12.775 25 12.15 25.5C11.525 26 10.9938 26.375 10.5 26.375C10.0063 26.375 9.47503 26 8.85003 25.5C8.22503 25 7.50003 24.375 6.50003 24.375Z" fill="#F7F2EC"/>
  </svg>
  