<svg width="24" height="24" viewBox="0 0 24 24" fill="none" xmlns="http://www.w3.org/2000/svg">
<path fill-rule="evenodd" clip-rule="evenodd" d="M19.0709 3.92957C19.3361 3.92957 19.5905 4.03492 19.778 4.22246C19.9656 4.41 20.0709 4.66435 20.0709 4.92957V10.5866C20.071 10.7429 20.0343 10.8971 19.964 11.0367C19.8937 11.1763 19.7916 11.2975 19.6659 11.3906L12.4679 16.7106L13.4139 17.6576C13.6014 17.8451 13.7067 18.0994 13.7067 18.3646C13.7067 18.6297 13.6014 18.884 13.4139 19.0716L11.9999 20.4856C11.8515 20.6339 11.6602 20.7317 11.4531 20.7653C11.246 20.7988 11.0336 20.7664 10.8459 20.6726L8.66192 19.5816L7.04992 21.1926C6.8624 21.38 6.60809 21.4854 6.34292 21.4854C6.07776 21.4854 5.82345 21.38 5.63592 21.1926L2.80792 18.3646C2.62045 18.177 2.51514 17.9227 2.51514 17.6576C2.51514 17.3924 2.62045 17.1381 2.80792 16.9506L4.41892 15.3386L3.32792 13.1546C3.2341 12.9669 3.20167 12.7545 3.23523 12.5474C3.26879 12.3403 3.36664 12.149 3.51492 12.0006L4.92892 10.5866C5.11645 10.3991 5.37076 10.2938 5.63592 10.2938C5.90109 10.2938 6.1554 10.3991 6.34292 10.5866L7.28992 11.5326L12.6099 4.33457C12.7029 4.20891 12.8241 4.10681 12.9638 4.03648C13.1034 3.96614 13.2576 3.92952 13.4139 3.92957H19.0709Z" fill="white"/>
</svg>