<svg width="288" height="24" viewBox="0 0 288 24" fill="none" xmlns="http://www.w3.org/2000/svg">
<path d="M1.125 17H0V15.875V14.75V13.625V12.5V11.375V10.25V9.125V8V6.875V5.75H1.125H2.25V6.875V8V9.125V10.25V11.375V12.5V13.625V14.75V15.875V17H1.125ZM11.07 17H9.945V15.875V14.75V13.625V12.5V11.375H8.82V10.25H7.695H6.57V11.375H5.445V12.5V13.625V14.75V15.875V17H4.32H3.195V15.875V14.75V13.625V12.5V11.375V10.25H4.32V9.125H5.445V8H6.57H7.695H8.82H9.945V9.125H11.07V10.25H12.195V11.375V12.5V13.625V14.75V15.875V17H11.07ZM17.64 17H16.515V15.875V14.75H15.39V13.625V12.5H14.265V11.375V10.25H13.14V9.125V8H14.265H15.39V9.125V10.25H16.515V11.375V12.5H17.64H18.765V11.375V10.25H19.89V9.125V8H21.015H22.14V9.125V10.25H21.015V11.375V12.5H19.89V13.625V14.75H18.765V15.875V17H17.64ZM28.71 17H27.585H26.46H25.335V15.875H24.21V14.75H23.085V13.625V12.5V11.375V10.25H24.21V9.125H25.335V8H26.46H27.585H28.71H29.835V9.125H30.96V10.25V11.375H29.835V12.5H28.71V13.625H27.585V14.75H28.71V13.625H29.835V12.5H30.96H32.085V13.625V14.75H30.96V15.875H29.835V17H28.71ZM26.46 12.5V11.375H25.335V12.5H26.46ZM27.585 11.375V10.25H26.46V11.375H27.585ZM40.905 17H39.78V15.875V14.75V13.625V12.5V11.375H38.655V10.25H37.53H36.405V11.375H35.28V12.5V13.625V14.75V15.875V17H34.155H33.03V15.875V14.75V13.625V12.5V11.375V10.25H34.155V9.125H35.28V8H36.405H37.53H38.655H39.78V9.125H40.905V10.25H42.03V11.375V12.5V13.625V14.75V15.875V17H40.905ZM46.35 17H45.225H44.1V15.875H42.975V14.75V13.625V12.5V11.375V10.25V9.125V8V6.875V5.75H44.1H45.225V6.875V8H46.35H47.475V9.125V10.25H46.35H45.225V11.375V12.5V13.625V14.75H46.35H47.475V15.875V17H46.35ZM54.045 17H52.92H51.795H50.67V15.875H49.545V14.75H48.42V13.625V12.5V11.375V10.25H49.545V9.125H50.67V8H51.795H52.92H54.045H55.17V9.125H56.295V10.25H57.42V11.375V12.5V13.625V14.75H56.295V15.875H55.17V17H54.045ZM52.92 14.75H54.045V13.625H55.17V12.5V11.375H54.045V10.25H52.92H51.795V11.375H50.67V12.5V13.625H51.795V14.75H52.92ZM59.49 17H58.365V15.875V14.75V13.625V12.5V11.375V10.25H59.49V9.125H60.615V8H61.74H62.865H63.99V9.125V10.25H62.865H61.74V11.375H60.615V12.5V13.625V14.75V15.875V17H59.49ZM70.56 20.375H69.435H68.31V19.25V18.125H69.435H70.56V17H69.435H68.31H67.185V15.875H66.06V14.75H64.935V13.625V12.5V11.375V10.25V9.125V8H66.06H67.185V9.125V10.25V11.375V12.5V13.625H68.31V14.75H69.435H70.56V13.625H71.685V12.5V11.375V10.25V9.125V8H72.81H73.935V9.125V10.25V11.375V12.5V13.625V14.75V15.875V17V18.125H72.81V19.25H71.685V20.375H70.56ZM71.685 17V15.875H70.56V17H71.685Z" fill="#F7F2EC"/>
<path d="M282 6L270 18M282 18L270 6" stroke="#F7F2EC" stroke-width="2" stroke-linecap="round"/>
</svg>