<svg width="22" height="22" viewBox="0 0 22 22" fill="none" xmlns="http://www.w3.org/2000/svg">
<path d="M10.0984 3.8043C10.6507 3.8043 11.0984 3.35659 11.0984 2.8043C11.0984 2.25202 10.6507 1.8043 10.0984 1.8043V3.8043ZM19.1968 17.5888H18.1968H19.1968ZM20.1968 11.9025C20.1968 11.3502 19.7491 10.9025 19.1968 10.9025C18.6445 10.9025 18.1968 11.3502 18.1968 11.9025L20.1968 11.9025ZM6.68649 15.3142L5.70631 15.1161C5.63996 15.4444 5.74239 15.7842 5.97918 16.0211C6.21596 16.258 6.55565 16.3607 6.88401 16.2945L6.68649 15.3142ZM7.52175 11.1813L6.54156 10.9832L7.52175 11.1813ZM7.8321 10.6027L7.12481 9.89574L7.8321 10.6027ZM11.4041 14.1696L10.6968 13.4626L11.4041 14.1696ZM10.8244 14.4805L10.6268 13.5002L10.8244 14.4805ZM20.6664 3.29321L21.3731 2.58569L20.6664 3.29321ZM20.6671 4.90177L21.3744 5.6087L20.6671 4.90177ZM18.7042 1.33325L17.9975 2.04077L18.7042 1.33325ZM17.0961 1.33393L17.8033 2.04085L17.0961 1.33393ZM0 6.21609V17.5888H2V6.21609H0ZM4.4119 22.0006H15.7849V20.0006H4.4119V22.0006ZM10.0984 1.8043H4.4119V3.8043H10.0984V1.8043ZM20.1968 17.5888L20.1968 11.9025L18.1968 11.9025L18.1968 17.5888H20.1968ZM15.7849 22.0006C18.2215 22.0006 20.1968 20.0254 20.1968 17.5888H18.1968C18.1968 18.9208 17.117 20.0006 15.7849 20.0006V22.0006ZM0 17.5888C0 20.0254 1.9753 22.0006 4.4119 22.0006V20.0006C3.07981 20.0006 2 18.9208 2 17.5888H0ZM2 6.21609C2 4.88412 3.07981 3.8043 4.4119 3.8043V1.8043C1.9753 1.8043 0 3.7795 0 6.21609H2ZM17.9975 2.04077L19.9597 4.00073L21.3731 2.58569L19.4109 0.625734L17.9975 2.04077ZM19.9598 4.19485L10.6968 13.4626L12.1114 14.8765L21.3744 5.6087L19.9598 4.19485ZM10.6268 13.5002L6.48898 14.3339L6.88401 16.2945L11.0219 15.4608L10.6268 13.5002ZM7.66668 15.5123L8.50193 11.3794L6.54156 10.9832L5.70631 15.1161L7.66668 15.5123ZM8.53939 11.3096L17.8033 2.04085L16.3888 0.627003L7.12481 9.89574L8.53939 11.3096ZM8.50193 11.3794C8.50728 11.353 8.5203 11.3287 8.53939 11.3096L7.12481 9.89574C6.8277 10.193 6.62482 10.5713 6.54156 10.9832L8.50193 11.3794ZM10.6968 13.4626C10.6777 13.4818 10.6534 13.4948 10.6268 13.5002L11.0219 15.4608C11.4347 15.3776 11.8137 15.1743 12.1114 14.8765L10.6968 13.4626ZM19.9597 4.00073C20.0134 4.05431 20.0134 4.14122 19.9598 4.19485L21.3744 5.6087C22.209 4.77364 22.2085 3.42004 21.3731 2.58569L19.9597 4.00073ZM19.4109 0.625734C18.5759 -0.20826 17.223 -0.207691 16.3888 0.627003L17.8033 2.04085C17.8569 1.98723 17.9439 1.98719 17.9975 2.04077L19.4109 0.625734Z" fill="#F7F2EC"/>
</svg>
