<svg width="24" height="24" viewBox="0 0 24 24" fill="none" xmlns="http://www.w3.org/2000/svg">
<path d="M10.945 3.10347C11.3619 2.16554 12.6379 2.16554 13.0548 3.10347L15.0226 7.53101C15.192 7.91233 15.5381 8.17504 15.9375 8.22563L20.5753 8.81298C21.5578 8.9374 21.9522 10.2056 21.2273 10.9097L17.8056 14.2334C17.5109 14.5196 17.3787 14.9447 17.4561 15.3573L18.3547 20.1478C18.5451 21.1627 17.5127 21.9464 16.6479 21.4437L12.5654 19.0703C12.2138 18.8659 11.786 18.8659 11.4344 19.0703L7.35195 21.4437C6.48711 21.9464 5.45474 21.1627 5.6451 20.1478L6.54368 15.3573C6.62107 14.9447 6.48889 14.5196 6.1942 14.2334L2.7725 10.9097C2.04765 10.2056 2.44198 8.9374 3.42446 8.81298L8.0623 8.22563C8.46174 8.17504 8.80778 7.91233 8.97725 7.53101L10.945 3.10347Z" fill="#FFC700"/>
</svg>