<svg width="24" height="22" viewBox="0 0 24 22" fill="none" xmlns="http://www.w3.org/2000/svg">
<path d="M11.4951 1.71454C11.7017 1.296 12.2985 1.296 12.5051 1.71454L15.1791 7.13267C15.2611 7.29887 15.4196 7.41407 15.6031 7.44073L21.5823 8.30956C22.0442 8.37668 22.2286 8.9443 21.8944 9.27009L17.5678 13.4875C17.4351 13.6169 17.3745 13.8033 17.4058 13.986L18.4272 19.9411C18.5061 20.4011 18.0233 20.7519 17.6101 20.5347L12.2621 17.7231C12.0981 17.6368 11.9021 17.6368 11.738 17.7231L6.39002 20.5347C5.97689 20.7519 5.49404 20.4011 5.57294 19.9411L6.59432 13.986C6.62565 13.8033 6.56509 13.6169 6.43236 13.4875L2.10573 9.27009C1.7715 8.9443 1.95594 8.37668 2.41783 8.30956L8.39708 7.44073C8.5805 7.41407 8.73906 7.29887 8.82109 7.13267L11.4951 1.71454Z" stroke="white" stroke-width="2" stroke-linejoin="round"/>
</svg>
