<svg width="24" height="24" viewBox="0 0 24 24" fill="none" xmlns="http://www.w3.org/2000/svg">
<path d="M9 12.0006C9 11.6028 9.15804 11.2213 9.43934 10.94C9.72064 10.6586 10.1022 10.5006 10.5 10.5006H13.5C13.8978 10.5006 14.2794 10.6586 14.5607 10.94C14.842 11.2213 15 11.6028 15 12.0006H9ZM12 1.50061C11.2044 1.50061 10.4413 1.81668 9.87868 2.37929C9.31607 2.9419 9 3.70496 9 4.50061V5.12461C7.66217 5.70849 6.5238 6.67007 5.72446 7.89145C4.92513 9.11283 4.49958 10.5409 4.5 12.0006V15.0006H19.5V12.0006C19.5004 10.5409 19.0749 9.11283 18.2755 7.89145C17.4762 6.67007 16.3378 5.70849 15 5.12461V4.50061C15 3.70496 14.6839 2.9419 14.1213 2.37929C13.5587 1.81668 12.7956 1.50061 12 1.50061ZM12 4.50061C11.486 4.50061 10.986 4.55061 10.5 4.65061V4.50061C10.5 4.10279 10.658 3.72125 10.9393 3.43995C11.2206 3.15865 11.6022 3.00061 12 3.00061C12.3978 3.00061 12.7794 3.15865 13.0607 3.43995C13.342 3.72125 13.5 4.10279 13.5 4.50061V4.65061C13.0063 4.55036 12.5038 4.50011 12 4.50061ZM10.5 9.00061H13.5C14.2956 9.00061 15.0587 9.31668 15.6213 9.87929C16.1839 10.4419 16.5 11.205 16.5 12.0006C16.5 12.3984 16.342 12.78 16.0607 13.0613C15.7794 13.3426 15.3978 13.5006 15 13.5006H9C8.60218 13.5006 8.22064 13.3426 7.93934 13.0613C7.65804 12.78 7.5 12.3984 7.5 12.0006C7.5 11.205 7.81607 10.4419 8.37868 9.87929C8.94129 9.31668 9.70435 9.00061 10.5 9.00061ZM9 18.7506V16.5006H4.5V18.7506C4.5 19.7452 4.89509 20.699 5.59835 21.4023C6.30161 22.1055 7.25544 22.5006 8.25 22.5006H15.75C16.7446 22.5006 17.6984 22.1055 18.4017 21.4023C19.1049 20.699 19.5 19.7452 19.5 18.7506V16.5006H10.5V18.7506C10.5 18.9495 10.421 19.1403 10.2803 19.2809C10.1397 19.4216 9.94891 19.5006 9.75 19.5006C9.55109 19.5006 9.36032 19.4216 9.21967 19.2809C9.07902 19.1403 9 18.9495 9 18.7506Z" fill="#F7F2EC"/>
</svg>