<svg width="21" height="18" viewBox="0 0 21 18" fill="none" xmlns="http://www.w3.org/2000/svg">
<path fill-rule="evenodd" clip-rule="evenodd" d="M19.1001 5.5043C19.0451 5.5003 18.9841 5.50031 18.9201 5.50031H16.3951C14.3271 5.50031 12.5581 7.12831 12.5581 9.25031C12.5581 11.3723 14.3281 13.0003 16.3951 13.0003H18.9201C18.9841 13.0003 19.0451 13.0003 19.1021 12.9963C19.5271 12.9707 19.9283 12.7914 20.231 12.4919C20.5336 12.1924 20.7171 11.793 20.7471 11.3683C20.7511 11.3083 20.7511 11.2433 20.7511 11.1833V7.31731C20.7511 7.25731 20.7511 7.19231 20.7471 7.13231C20.7171 6.70757 20.5336 6.30824 20.231 6.00872C19.9283 5.70921 19.5271 5.52993 19.1021 5.5043M16.1741 10.2503C16.7061 10.2503 17.1371 9.80231 17.1371 9.25031C17.1371 8.69831 16.7061 8.25031 16.1741 8.25031C15.6411 8.25031 15.2101 8.69831 15.2101 9.25031C15.2101 9.80231 15.6411 10.2503 16.1741 10.2503Z" fill="#F7F2EC"/>
<path fill-rule="evenodd" clip-rule="evenodd" d="M18.918 14.5003C18.9526 14.4989 18.987 14.5057 19.0184 14.5201C19.0499 14.5345 19.0775 14.5561 19.099 14.5832C19.1206 14.6103 19.1354 14.6421 19.1424 14.676C19.1493 14.7099 19.1481 14.7449 19.139 14.7783C18.939 15.4903 18.62 16.0983 18.109 16.6083C17.36 17.3583 16.411 17.6893 15.239 17.8473C14.099 18.0003 12.644 18.0003 10.806 18.0003H8.694C6.856 18.0003 5.4 18.0003 4.261 17.8473C3.089 17.6893 2.14 17.3573 1.391 16.6093C0.643 15.8603 0.311 14.9113 0.153 13.7393C1.19209e-07 12.5993 0 11.1443 0 9.3063V9.19431C0 7.35631 1.19209e-07 5.90031 0.153 4.76031C0.311 3.58831 0.643 2.63931 1.391 1.89031C2.14 1.14231 3.089 0.810305 4.261 0.652305C5.401 0.500305 6.856 0.500305 8.694 0.500305H10.806C12.644 0.500305 14.1 0.500305 15.239 0.653305C16.411 0.811305 17.36 1.1433 18.109 1.8913C18.62 2.40331 18.939 3.01031 19.139 3.72231C19.1481 3.75567 19.1493 3.79073 19.1424 3.82463C19.1354 3.85852 19.1206 3.8903 19.099 3.91739C19.0775 3.94447 19.0499 3.96609 19.0184 3.9805C18.987 3.99491 18.9526 4.00169 18.918 4.00031H16.394C13.557 4.00031 11.057 6.2403 11.057 9.25031C11.057 12.2603 13.557 14.5003 16.394 14.5003H18.918ZM3.75 4.50031C3.55109 4.50031 3.36032 4.57932 3.21967 4.71997C3.07902 4.86063 3 5.05139 3 5.25031C3 5.44922 3.07902 5.63998 3.21967 5.78063C3.36032 5.92129 3.55109 6.00031 3.75 6.00031H7.75C7.94891 6.00031 8.13968 5.92129 8.28033 5.78063C8.42098 5.63998 8.5 5.44922 8.5 5.25031C8.5 5.05139 8.42098 4.86063 8.28033 4.71997C8.13968 4.57932 7.94891 4.50031 7.75 4.50031H3.75Z" fill="#F7F2EC"/>
</svg>